<?xml version="1.0" encoding="utf-8"?>
<!-- Generator: Adobe Illustrator 27.3.1, SVG Export Plug-In . SVG Version: 6.00 Build 0)  -->
<svg version="1.1" id="outline" xmlns="http://www.w3.org/2000/svg" xmlns:xlink="http://www.w3.org/1999/xlink" x="0px" y="0px"
	 viewBox="0 0 292.9 71.4" style="enable-background:new 0 0 292.9 71.4;" xml:space="preserve">
<style type="text/css">
	.st0{fill:#1111BB;}
</style>
<g>
	<path d="M276.3,42c0.8,0,1.5-0.1,2.2-0.4c0.7-0.3,1.2-0.7,1.7-1.2c0.5-0.5,0.9-1.2,1.1-1.9c0.3-0.7,0.4-1.5,0.4-2.4
		c0-0.8-0.1-1.6-0.4-2.4c-0.2-0.7-0.6-1.3-1.1-1.9c-0.5-0.5-1.1-1-1.7-1.2c-0.7-0.3-1.4-0.4-2.2-0.4c-0.8,0-1.5,0.1-2.2,0.4
		c-0.7,0.3-1.2,0.7-1.7,1.2c-0.5,0.5-0.9,1.2-1.1,1.9c-0.3,0.7-0.4,1.5-0.4,2.4c0,0.9,0.1,1.7,0.4,2.4c0.3,0.7,0.6,1.3,1.1,1.9
		c0.5,0.5,1.1,0.9,1.7,1.2C274.7,41.9,275.5,42,276.3,42 M286.5,46.3h-5v-2.6c-0.6,1-1.4,1.8-2.4,2.3c-1,0.6-2.2,0.9-3.8,0.9
		c-1.4,0-2.6-0.2-3.8-0.7c-1.2-0.5-2.2-1.2-3.1-2.1c-0.9-1-1.6-2.1-2-3.4c-0.5-1.3-0.7-2.8-0.7-4.5s0.3-3.2,0.8-4.5
		c0.5-1.3,1.2-2.4,2.2-3.4c0.9-0.9,1.9-1.6,3-2.1c1.1-0.5,2.3-0.7,3.5-0.7c1.6,0,2.9,0.2,3.9,0.8s1.8,1.2,2.4,2.1v-2.3h5L286.5,46.3
		L286.5,46.3z M263.8,30.5c-0.5-0.2-1.1-0.3-1.6-0.3c-0.8,0-1.4,0.1-2,0.5c-0.6,0.3-1.1,0.7-1.5,1.3s-0.7,1.2-0.9,1.9
		c-0.2,0.7-0.3,1.5-0.3,2.4v10h-5.1V25.9h5.1v3.2c0.6-1.2,1.3-2.1,2.2-2.8c0.9-0.7,2-1,3.3-1c0.6,0,1.2,0.1,1.7,0.2L263.8,30.5z
		 M247.2,46.3h-5.1V33.7c0-1.2-0.2-2.1-0.7-2.8s-1.3-1-2.4-1c-1.1,0-2.1,0.4-2.8,1.3s-1.1,2.1-1.1,3.8v11.3h-5.1V33.8
		c0-1.2-0.3-2.2-0.8-2.9c-0.5-0.7-1.3-1-2.4-1c-1,0-1.9,0.4-2.6,1.3c-0.8,0.9-1.1,2.1-1.1,3.7v11.4h-5.1V25.9h5.1v2.7
		c0.8-1.2,1.6-2,2.7-2.5c1-0.5,2-0.8,3.1-0.8c1.5,0,2.6,0.3,3.6,0.9c0.9,0.6,1.6,1.5,2,2.6c0.7-1.2,1.6-2.1,2.8-2.6
		c1.1-0.5,2.3-0.8,3.6-0.8c2.1,0,3.7,0.6,4.8,1.8c1.1,1.2,1.6,2.8,1.6,4.9L247.2,46.3L247.2,46.3z M204.2,29.3
		c-1.4,0-2.5,0.4-3.5,1.2s-1.6,1.8-2,3h10.7c-0.2-1.3-0.8-2.4-1.7-3.1C206.8,29.7,205.6,29.3,204.2,29.3 M198.8,37.3
		c0.2,1.6,0.7,2.8,1.7,3.7c1,0.9,2.2,1.4,3.7,1.4c1.4,0,2.5-0.3,3.4-1s1.6-1.6,2.1-2.7l3.8,2.2c-0.9,2-2.2,3.5-3.7,4.5
		c-1.5,1-3.4,1.5-5.7,1.5c-1.4,0-2.7-0.3-3.9-0.8c-1.2-0.5-2.3-1.2-3.2-2.2c-0.9-1-1.7-2.1-2.2-3.4c-0.6-1.3-0.8-2.8-0.8-4.4
		c0-1.6,0.3-3.1,0.8-4.4c0.6-1.3,1.3-2.4,2.2-3.4c1-1,2.1-1.7,3.3-2.2c1.3-0.5,2.7-0.8,4.1-0.8c1.3,0,2.7,0.2,3.9,0.8
		c1.1,0.5,2.2,1.2,3.1,2.1c0.9,0.9,1.5,2,2,3.2c0.5,1.2,0.7,2.6,0.7,4.1v1.8C214.1,37.3,198.8,37.3,198.8,37.3z M179,25.9h3.1v-5.5
		h5.1v5.5h4.3v4.2h-4.3v9.3c0,1,0.2,1.8,0.7,2.2c0.4,0.4,1.1,0.7,1.8,0.7c0.4,0,0.7,0,1-0.1c0.3-0.1,0.5-0.1,0.7-0.2l0.5,4.3
		c-0.5,0.2-1,0.3-1.6,0.4s-1.2,0.2-1.8,0.2c-0.9,0-1.7-0.1-2.4-0.3c-0.8-0.2-1.5-0.5-2.1-1c-0.6-0.5-1.1-1.2-1.4-2
		c-0.3-0.8-0.5-1.9-0.5-3.1V30.1H179L179,25.9L179,25.9z M165.6,30.9c0,1.3,1.6,2.2,4.7,2.9c2.4,0.5,4.1,1.2,5.1,2.2
		s1.6,2.3,1.6,4.1c0,1-0.2,1.8-0.5,2.7s-0.9,1.5-1.5,2.2c-0.7,0.6-1.5,1.1-2.5,1.4c-1.1,0.4-2.2,0.5-3.3,0.5c-1.3,0-2.4-0.2-3.4-0.5
		c-0.9-0.3-1.8-0.8-2.6-1.3c-0.7-0.5-1.4-1.2-1.9-2c-0.5-0.7-0.9-1.5-1.3-2.3l4.1-2.6c0.4,1.3,1.1,2.3,1.9,3.2
		c0.9,0.8,1.9,1.2,3.2,1.2c0.8,0,1.5-0.2,2.1-0.6c0.7-0.4,1-0.9,1-1.7c0-0.7-0.3-1.2-1-1.6c-0.7-0.4-1.8-0.7-3.2-1
		c-0.9-0.2-1.8-0.5-2.7-0.8c-0.8-0.3-1.5-0.7-2.2-1.3c-0.6-0.5-1.1-1.1-1.5-1.8s-0.5-1.5-0.5-2.4c0-1,0.2-1.8,0.6-2.5
		c0.4-0.7,1-1.4,1.6-1.8s1.5-0.9,2.4-1.1c0.9-0.3,1.9-0.4,2.8-0.4c2.2,0,3.9,0.4,5.1,1.3c1.3,0.9,2.3,2.1,3.1,3.9l-3.6,2.2
		c-0.4-1.1-1-2-1.8-2.6c-0.8-0.6-1.7-1-2.7-0.9c-0.8,0-1.5,0.1-2.1,0.4C165.9,29.9,165.6,30.3,165.6,30.9"/>
	<path d="M99.5,41.9c0.8,0,1.5-0.1,2.2-0.4s1.2-0.7,1.7-1.2c0.5-0.5,0.9-1.2,1.1-1.9c0.3-0.7,0.4-1.5,0.4-2.4c0-0.8-0.1-1.6-0.4-2.4
		c-0.2-0.7-0.6-1.3-1.1-1.9c-0.5-0.5-1.1-1-1.7-1.2c-0.7-0.3-1.4-0.4-2.2-0.4c-0.8,0-1.5,0.1-2.2,0.4c-0.7,0.3-1.2,0.7-1.7,1.2
		c-0.5,0.5-0.9,1.2-1.1,1.9C94.2,34.4,94,35.2,94,36c0,0.9,0.1,1.7,0.4,2.4c0.3,0.7,0.7,1.3,1.1,1.9s1.1,0.9,1.7,1.2
		C98,41.8,98.7,41.9,99.5,41.9 M109.7,46.2h-5.1v-2.6c-0.6,1-1.4,1.8-2.4,2.3s-2.2,0.9-3.8,0.9c-1.4,0-2.6-0.2-3.8-0.7
		c-1.2-0.5-2.2-1.2-3.1-2.1c-0.9-1-1.6-2.1-2.1-3.4c-0.5-1.3-0.7-2.8-0.7-4.5c0-1.7,0.3-3.2,0.8-4.5c0.5-1.3,1.2-2.4,2.2-3.4
		c0.9-0.9,1.9-1.6,3.1-2.1c1.1-0.5,2.3-0.7,3.5-0.7c1.6,0,2.9,0.2,3.9,0.8s1.8,1.2,2.4,2.1v-2.3h5.1
		C109.7,25.9,109.7,46.2,109.7,46.2z M85.2,46.2h-5.1V33.6c0-1.2-0.2-2.1-0.7-2.8s-1.3-1-2.4-1c-1.1,0-2.1,0.4-2.8,1.3
		c-0.7,0.9-1.1,2.1-1.1,3.8v11.3h-5.1V33.7c0-1.2-0.2-2.2-0.8-2.9c-0.5-0.7-1.3-1-2.4-1c-1,0-1.9,0.4-2.6,1.3
		c-0.8,0.9-1.1,2.1-1.1,3.7v11.4h-5V25.9h5v2.7c0.8-1.2,1.6-2,2.7-2.5c1-0.5,2-0.8,3.1-0.8c1.5,0,2.7,0.3,3.6,0.9s1.6,1.5,2,2.6
		c0.7-1.2,1.7-2.1,2.8-2.6c1.1-0.5,2.3-0.8,3.6-0.8c2.1,0,3.7,0.6,4.8,1.8c1.1,1.2,1.6,2.8,1.6,4.9L85.2,46.2L85.2,46.2z M32.5,25.9
		h5v11.4c0,1.5,0.3,2.6,1,3.4s1.7,1.2,3.1,1.2c1.4,0,2.5-0.5,3.4-1.6c0.8-1,1.2-2.4,1.2-4V25.9h5v20.3h-5V43
		c-0.6,1.2-1.5,2.2-2.6,2.8c-1.1,0.6-2.3,1-3.8,1c-1,0-2-0.2-2.9-0.5c-0.9-0.3-1.7-0.9-2.3-1.6c-0.7-0.7-1.2-1.6-1.6-2.6
		c-0.4-1-0.6-2.2-0.6-3.6L32.5,25.9L32.5,25.9z M17.9,41.9c0.8,0,1.5-0.1,2.2-0.4c0.7-0.3,1.3-0.7,1.8-1.2c0.5-0.5,0.9-1.2,1.2-1.9
		s0.4-1.5,0.4-2.4c0-0.8-0.1-1.6-0.4-2.4c-0.3-0.7-0.7-1.3-1.2-1.9c-0.5-0.5-1.1-1-1.8-1.2c-0.7-0.3-1.4-0.4-2.2-0.4
		c-0.8,0-1.5,0.1-2.2,0.4c-0.7,0.3-1.3,0.7-1.8,1.2c-0.5,0.5-0.9,1.2-1.2,1.9c-0.3,0.7-0.4,1.5-0.4,2.4c0,0.9,0.1,1.7,0.4,2.4
		c0.3,0.7,0.7,1.3,1.2,1.9c0.5,0.5,1.1,0.9,1.8,1.2C16.4,41.8,17.1,41.9,17.9,41.9 M7.6,17.5h5.1v10.9c0.8-1,1.7-1.7,2.8-2.2
		c1.2-0.5,2.4-0.8,3.7-0.8c1.3,0,2.6,0.2,3.7,0.7c1.1,0.5,2.2,1.2,3,2.1c0.9,1,1.6,2.1,2,3.4c0.5,1.3,0.7,2.8,0.7,4.5
		c0,1.7-0.2,3.2-0.8,4.5c-0.5,1.2-1.2,2.4-2.1,3.4c-0.9,0.9-1.9,1.6-3,2.1c-1.2,0.5-2.4,0.7-3.7,0.7c-1.6,0-2.9-0.3-3.9-0.9
		c-1.1-0.6-1.9-1.3-2.5-2.2v2.5H7.6V17.5z"/>
	<path class="st0" d="M122.9,33.2c-1.4,0-2.5,1.1-2.5,2.5s1.1,2.5,2.5,2.5s2.5-1.1,2.5-2.5S124.3,33.2,122.9,33.2"/>
	<path class="st0" d="M131.8,30.4c-1.4,0-2.5,1.1-2.5,2.5v5.8c0,1.4,1.1,2.5,2.5,2.5s2.5-1.1,2.5-2.5v-5.8
		C134.3,31.5,133.2,30.4,131.8,30.4"/>
	<path class="st0" d="M140.6,17.6c-1.4,0-2.5,1.1-2.5,2.5v31.4c0,1.4,1.1,2.5,2.5,2.5s2.5-1.1,2.5-2.5V20.1
		C143.2,18.7,142,17.6,140.6,17.6"/>
	<path class="st0" d="M149.5,22.6c-1.4,0-2.5,1.1-2.5,2.5v21.3c0,1.4,1.1,2.5,2.5,2.5s2.5-1.1,2.5-2.5V25.1
		C152,23.7,150.9,22.6,149.5,22.6"/>
</g>
</svg>
