<?xml version="1.0" encoding="UTF-8"?><svg id="Laag_1" xmlns="http://www.w3.org/2000/svg" viewBox="0 0 1135 260"><defs><style>.cls-1{fill:#280096;}.cls-1,.cls-2,.cls-3,.cls-4{stroke-width:0px;}.cls-2{fill:#0064ff;}.cls-3{fill:#00dc2d;}.cls-4{fill:#fff;}</style></defs><path class="cls-2" d="M1135,130c0,71.8-58.2,130-129.99,130h-154.41c71.79,0,130-58.2,130-130S922.39,0,850.6,0h154.41C1076.8,0,1135,58.2,1135,130Z"/><path class="cls-3" d="M339.18,260h-209.18C58.2,260,0,201.8,0,130S58.2,0,130,0h209.18C267.38,0,209.18,58.2,209.18,130s58.2,130,130,130Z"/><path class="cls-1" d="M980.6,130c0,71.8-58.21,130-130,130h-511.42c-71.8,0-130-58.2-130-130S267.38,0,339.18,0h511.42C922.39,0,980.6,58.2,980.6,130Z"/><path class="cls-4" d="M715.16,200.53c-5.52,0-10-4.48-10-10v-90.8c0-11.18-9.09-20.27-20.27-20.27h-39.74c-11.18,0-20.27,9.09-20.27,20.27v90.8c0,5.52-4.47,10-10,10s-10-4.48-10-10v-90.8c0-22.2,18.06-40.26,40.26-40.26h39.74c22.2,0,40.26,18.06,40.26,40.26v90.8c0,5.52-4.48,10-10,10Z"/><path class="cls-4" d="M404.36,120h-39.74c-11.18,0-20.27-9.09-20.27-20.27s9.09-20.27,20.27-20.27h39.74c9.26,0,17.33,6.25,19.63,15.2,1.16,4.51,5.22,7.51,9.67,7.51.82,0,1.66-.1,2.5-.32,5.35-1.38,8.56-6.82,7.19-12.17-4.58-17.79-20.61-30.21-38.99-30.21h-39.74c-22.2,0-40.26,18.06-40.26,40.26s18.06,40.26,40.26,40.26h39.74c11.18,0,20.27,9.09,20.27,20.27s-9.09,20.27-20.27,20.27h-39.74c-9.26,0-17.33-6.25-19.63-15.2-1.37-5.35-6.82-8.56-12.17-7.19-5.35,1.38-8.56,6.82-7.19,12.17,4.58,17.79,20.61,30.21,38.99,30.21h39.74c22.2,0,40.26-18.06,40.26-40.26s-18.06-40.26-40.26-40.26Z"/><path class="cls-4" d="M865.42,104.94c0-25.07-20.4-45.47-45.47-45.47h-29.55c-18.41,0-34.45,12.44-39.01,30.25-1.37,5.35,1.86,10.79,7.2,12.16,5.35,1.37,10.79-1.86,12.16-7.2,2.29-8.96,10.37-15.22,19.64-15.22h29.55c14.05,0,25.48,11.43,25.48,25.48v15.07h-58.3c-23.15,0-41.98,18.83-41.98,41.98,0,21.26,17.29,38.55,38.55,38.55h39.74c8.31,0,16.06-2.44,22.58-6.62,1.39,3.86,5.06,6.62,9.4,6.62,5.52,0,10-4.48,10-10v-85.6ZM823.44,180.54h-39.74c-10.23,0-18.56-8.33-18.56-18.56,0-12.12,9.86-21.99,21.98-21.99h58.3v18.56c0,12.12-9.86,21.99-21.98,21.99Z"/><path class="cls-4" d="M542.47,200.53h-32.39c-25.07,0-45.47-20.4-45.47-45.47v-46.48c0-27.08,22.03-49.11,49.11-49.11h22.72c26.71,0,48.43,21.73,48.43,48.43v12.46c0,10.83-8.81,19.64-19.64,19.64h-80.64v15.07c0,14.05,11.43,25.48,25.48,25.48h32.39c9.27,0,17.35-6.26,19.64-15.22,1.37-5.35,6.82-8.57,12.16-7.2,5.35,1.37,8.57,6.81,7.2,12.16-4.56,17.81-20.6,30.25-39.01,30.25ZM484.61,120h80.29v-12.1c0-15.68-12.76-28.44-28.44-28.44h-22.72c-16.06,0-29.12,13.06-29.12,29.12v11.42Z"/></svg>